# Blender v2.83.5 OBJ File: ''
# www.blender.org
mtllib untitled.mtl
o Icosphere_003
v 302.302704 131.069595 -15.847580
v 303.605469 155.456619 1.882843
v 288.077148 131.152237 10.768501
v 299.736572 158.627899 -27.878647
v 274.610962 119.302277 -13.501667
v 281.817139 136.283554 -37.387001
v 283.924927 175.742615 -8.698341
v 276.718750 158.761368 15.186989
v 258.799316 136.417007 5.678627
v 254.930466 139.588318 -24.082863
v 270.458801 163.892670 -32.968529
v 256.233215 163.975296 -6.352436
v 320.308624 66.292496 -45.425556
v 342.898132 79.850189 -28.129559
v 312.852478 81.283646 -18.725018
v 343.407013 82.437103 -59.534603
v 294.791626 84.756577 -44.318081
v 313.675842 85.469406 -69.539871
v 350.226501 107.406342 -41.554131
v 331.342285 106.693481 -16.332344
v 301.611115 109.725815 -26.337612
v 302.119965 112.312714 -57.742653
v 332.165649 110.879242 -67.147194
v 324.709503 125.870392 -40.446655
v 231.938965 74.574905 -10.351593
v 254.528503 88.132584 6.944405
v 224.482819 89.566071 16.348938
v 255.037369 90.719498 -24.460648
v 206.421997 93.038971 -9.244122
v 225.306183 93.751831 -34.465912
v 261.856842 115.688736 -6.480175
v 242.972641 114.975891 18.741615
v 213.241455 118.008194 8.736351
v 213.750336 120.595139 -22.668694
v 243.796005 119.161652 -32.073235
v 236.339859 134.152802 -5.372700
v 241.569946 75.446274 -27.483021
v 289.401306 69.823944 0.322166
v 251.408585 106.617828 17.507095
v 289.401306 69.823959 -55.288208
v 227.927200 129.358276 -27.483009
v 251.408569 106.617844 -72.473122
v 328.801575 97.520905 -27.483021
v 305.320190 120.261322 17.507095
v 267.327454 157.055222 0.322182
v 267.327454 157.055237 -55.288189
v 305.320190 120.261337 -72.473122
v 315.158844 151.432892 -27.483009
v 242.915588 25.660931 -58.325424
v 288.997742 20.244221 -31.537117
v 252.394424 55.692501 -14.980648
v 288.997742 20.244228 -85.113739
v 229.771774 77.601303 -58.325409
v 252.394409 55.692532 -101.670181
v 326.957031 46.928272 -58.325424
v 304.334412 68.837051 -14.980652
v 267.731110 104.285339 -31.537098
v 267.731110 104.285339 -85.113716
v 304.334412 68.837067 -101.670181
v 313.813232 98.868637 -58.325409
v 290.308533 66.338943 7.566002
v 272.201599 83.422928 41.240242
v 265.410889 43.151043 31.981262
v 273.993469 104.840393 5.299713
v 263.005798 39.678829 -9.682358
v 268.310211 77.805527 -26.172241
v 239.012405 105.447891 28.314117
v 233.707977 67.321213 44.804001
v 228.024719 40.286327 13.332047
v 229.816589 61.703793 -22.608490
v 236.607300 101.975677 -13.349491
v 211.709656 78.787766 11.065773
v 267.088806 28.530636 -7.801197
v 317.799927 22.569805 21.678017
v 277.519775 61.578907 39.897598
v 317.799927 22.569820 -37.280430
v 252.624664 85.688446 -7.801186
v 277.519775 61.578930 -55.499985
v 359.572327 51.934292 -7.801201
v 334.677216 76.043823 39.897598
v 294.397064 115.052933 21.678032
v 294.397064 115.052948 -37.280411
v 334.677216 76.043839 -55.499985
v 345.108185 109.092102 -7.801186
v 228.346130 40.351460 -69.993195
v 258.361267 37.019466 -36.076237
v 214.294678 29.335575 -28.237053
v 261.570862 71.049179 -65.976128
v 190.269043 58.616802 -53.292412
v 219.488007 84.397263 -76.616501
v 268.053528 79.005890 -21.737339
v 238.834564 53.225422 1.586739
v 196.751678 66.573517 -9.053627
v 199.961288 100.603210 -38.953518
v 244.027863 108.287109 -46.792702
v 229.976425 97.271225 -5.036556
v 269.584900 -73.248924 -37.030510
v 269.584869 -47.369549 -31.071053
v 279.210510 -47.369541 -27.083977
v 283.424500 -73.248917 -31.297951
v 283.197601 -47.369541 -17.458324
v 289.157043 -73.248917 -17.458328
v 279.210510 -47.369545 -7.832672
v 283.424500 -73.248909 -3.618698
v 269.584869 -47.369564 -3.845596
v 269.584900 -73.248917 2.113869
v 259.959229 -47.369564 -7.832676
v 255.745270 -73.248932 -3.618706
v 255.972153 -47.369564 -17.458324
v 250.012695 -73.248932 -17.458328
v 261.800018 -32.004318 -9.673481
v 258.575439 -32.004326 -17.458321
v 255.745270 -73.248924 -31.297951
v 259.959229 -47.369560 -27.083973
v 246.415558 -83.860962 -40.627659
v 236.818497 -83.860962 -17.458324
v 258.318207 -3.867199 -17.263008
v 261.760925 -3.867203 -25.574432
v 261.800018 -32.004314 -25.243160
v 277.369690 -32.004314 -25.243168
v 280.594299 -32.004314 -17.458321
v 269.584839 -32.004326 -28.467754
v 269.584839 -32.004326 -6.448883
v 277.369690 -32.004318 -9.673477
v 270.072327 -3.867199 -29.017139
v 270.072327 -3.867207 -5.508869
v 261.760925 -3.867203 -8.951576
v 281.826477 -3.867188 -17.263008
v 278.383789 -3.867195 -8.951584
v 278.383789 -3.867191 -25.574432
v 290.191833 15.546543 -12.403610
v 292.819000 12.376003 -6.398922
v 290.191833 10.949749 0.239937
v 283.849274 12.103283 3.624008
v 268.678406 8.567158 -17.263004
v 280.717560 16.393345 -4.938332
v 285.384583 16.454716 -14.256657
v 295.649689 50.429142 11.236160
v 292.566956 50.852474 2.323898
v 295.649689 50.429150 -6.588352
v 301.893005 49.571812 -3.978012
v 304.479065 49.216702 2.323898
v 301.893005 49.571789 8.625816
v 301.391357 83.514587 4.487686
v 299.247711 83.808975 5.383942
v 298.189270 83.954300 2.323906
v 299.247711 83.808975 -0.736130
v 301.391357 83.514587 0.160133
v 302.279297 83.392654 2.323906
v 239.013794 18.264233 -29.217613
v 236.185471 15.153339 -35.295975
v 239.013794 12.042461 -41.374340
v 247.684357 14.131565 -43.892086
v 251.909454 18.223942 -35.295975
v 245.841980 19.552784 -26.699867
v 233.606049 55.972942 -42.144714
v 237.878662 55.972942 -43.914490
v 241.675262 55.972942 -37.872105
v 237.878662 55.972942 -31.829723
v 233.606049 55.972942 -33.599495
v 231.836288 55.972942 -37.872105
v 233.574097 85.650070 -39.432358
v 235.134354 85.650070 -40.078640
v 236.520782 85.650070 -37.872101
v 235.134354 85.650070 -35.665565
v 233.574097 85.650070 -36.311848
v 232.927826 85.650070 -37.872101
v 269.584900 -83.860939 -50.224716
v 292.754211 -83.860939 -40.627663
v 302.351257 -83.860931 -17.458324
v 292.754211 -83.860931 5.711006
v 269.584900 -83.860947 15.308060
v 246.415558 -83.860962 5.710999
vn 0.8211 -0.3637 0.4400
vn 0.9915 0.0378 -0.1249
vn 0.3973 -0.8921 0.2151
vn 0.3058 -0.8171 -0.4887
vn 0.6730 -0.2424 -0.6988
vn 0.7229 0.6907 -0.0204
vn 0.4472 0.0410 0.8935
vn -0.2385 -0.8140 0.5297
vn -0.3865 -0.6926 -0.6090
vn 0.2077 0.2373 -0.9490
vn 0.3865 0.6926 0.6090
vn -0.2076 -0.2373 0.9490
vn -0.7229 -0.6907 0.0204
vn -0.4472 -0.0410 -0.8935
vn 0.2385 0.8140 -0.5297
vn -0.3058 0.8171 0.4887
vn -0.6730 0.2424 0.6988
vn -0.9915 -0.0378 0.1249
vn -0.8211 0.3637 -0.4400
vn -0.3973 0.8921 -0.2151
vn 0.1194 -0.8511 0.5112
vn 0.5470 -0.8350 -0.0599
vn -0.5538 -0.7825 0.2847
vn -0.5423 -0.7239 -0.4265
vn 0.1381 -0.7563 -0.6394
vn 0.9657 -0.2596 -0.0057
vn 0.2738 -0.2857 0.9184
vn -0.8155 -0.1746 0.5518
vn -0.7968 -0.0798 -0.5989
vn 0.3040 -0.1324 -0.9434
vn 0.7968 0.0798 0.5989
vn -0.3040 0.1324 0.9434
vn -0.9657 0.2596 0.0057
vn -0.2738 0.2857 -0.9184
vn 0.8155 0.1746 -0.5518
vn 0.5423 0.7239 0.4265
vn -0.1381 0.7563 0.6394
vn -0.5470 0.8350 0.0599
vn -0.1194 0.8511 -0.5112
vn 0.5538 0.7825 -0.2847
vn -0.7969 -0.0798 -0.5989
vn -0.4181 -0.7013 0.5774
vn -0.1167 -0.9932 -0.0000
vn -0.9056 -0.2292 0.3568
vn -0.9056 -0.2292 -0.3568
vn -0.4181 -0.7013 -0.5774
vn 0.5751 -0.8181 -0.0000
vn 0.0875 -0.3459 0.9342
vn -0.7013 0.4181 0.5774
vn -0.7013 0.4181 -0.5774
vn 0.0875 -0.3459 -0.9342
vn 0.7013 -0.4181 0.5774
vn -0.0875 0.3459 0.9342
vn -0.5751 0.8181 0.0000
vn -0.0875 0.3459 -0.9342
vn 0.7013 -0.4181 -0.5774
vn 0.9056 0.2292 0.3568
vn 0.4181 0.7013 0.5774
vn 0.1167 0.9932 0.0000
vn 0.4181 0.7013 -0.5774
vn 0.9056 0.2292 -0.3568
vn 0.7888 -0.2610 0.5565
vn 0.8792 0.3888 0.2755
vn 0.6919 -0.7217 0.0202
vn 0.7225 -0.3567 -0.5923
vn 0.8382 0.3296 -0.4345
vn 0.3389 0.8007 0.4940
vn 0.1927 -0.2506 0.9487
vn 0.0360 -0.9961 0.0809
vn 0.0854 -0.4055 -0.9101
vn 0.2726 0.7049 -0.6548
vn -0.0854 0.4055 0.9101
vn -0.2726 -0.7049 0.6548
vn -0.3389 -0.8007 -0.4940
vn -0.1927 0.2506 -0.9487
vn -0.0360 0.9961 -0.0809
vn -0.7225 0.3567 0.5923
vn -0.8382 -0.3296 0.4345
vn -0.8792 -0.3888 -0.2755
vn -0.7888 0.2610 -0.5565
vn -0.6919 0.7217 -0.0202
vn 0.1313 -0.9686 -0.2113
vn 0.5904 -0.5634 -0.5779
vn -0.5300 -0.7588 -0.3785
vn -0.4796 -0.2240 -0.8484
vn 0.2129 -0.1033 -0.9716
vn 0.9761 -0.1880 -0.1092
vn 0.2332 -0.8435 0.4838
vn -0.8369 -0.5041 0.2133
vn -0.7553 0.3611 -0.5470
vn 0.3652 0.5565 -0.7463
vn 0.7553 -0.3611 0.5470
vn -0.3652 -0.5565 0.7463
vn -0.9761 0.1880 0.1092
vn -0.2332 0.8435 -0.4838
vn 0.8369 0.5041 -0.2133
vn 0.4796 0.2240 0.8484
vn -0.2129 0.1033 0.9716
vn -0.5904 0.5634 0.5779
vn -0.1313 0.9686 0.2113
vn 0.5300 0.7588 0.3785
vn 0.3743 0.2081 -0.9037
vn 0.9037 0.2081 -0.3743
vn 0.9037 0.2081 0.3743
vn 0.3743 0.2081 0.9037
vn -0.3743 0.2081 0.9037
vn -0.9037 0.2081 0.3743
vn -0.9128 0.1546 0.3781
vn -0.3743 0.2081 -0.9037
vn -0.9037 0.2081 -0.3743
vn -0.6066 0.7542 -0.2513
vn -0.9239 -0.0058 -0.3827
vn 0.9128 0.1546 -0.3781
vn 0.3781 0.1546 -0.9128
vn -0.3781 0.1546 0.9128
vn -0.3781 0.1546 -0.9128
vn 0.3781 0.1546 0.9128
vn -0.9128 0.1546 -0.3781
vn 0.9128 0.1546 0.3781
vn -0.3827 -0.0114 -0.9238
vn -0.3826 -0.0242 0.9236
vn 0.9230 -0.0431 0.3823
vn 0.3826 -0.0247 -0.9236
vn 0.8649 -0.2661 -0.4256
vn -0.9238 -0.0111 0.3827
vn 0.3824 -0.0375 0.9232
vn 0.9232 -0.0378 -0.3824
vn 0.7105 -0.6668 0.2249
vn 0.2778 -0.6512 0.7063
vn -0.7744 0.3929 0.4959
vn 0.3713 0.3509 -0.8597
vn -0.2760 0.7921 -0.5445
vn -0.9003 0.2152 0.3782
vn 0.3856 0.0927 -0.9180
vn 0.8839 -0.1878 -0.4282
vn 0.8798 -0.3462 0.3258
vn -0.8568 0.3579 -0.3713
vn 0.3717 -0.2964 0.8798
vn 0.3967 0.1169 0.9105
vn -0.9308 0.1581 0.3295
vn 0.3967 0.1169 -0.9105
vn -0.9308 0.1581 -0.3295
vn 0.9247 0.0595 -0.3761
vn 0.9247 0.0595 0.3761
vn -0.7814 -0.4456 0.4369
vn -0.5765 -0.8136 -0.0753
vn 0.7384 0.4695 -0.4840
vn -0.1321 -0.7559 -0.6412
vn 0.1963 0.8411 0.5041
vn -0.3658 0.3913 0.8444
vn -0.3047 -0.0628 -0.9504
vn 0.8126 0.2539 0.5245
vn -0.3652 0.0534 0.9294
vn 0.8365 0.1939 -0.5126
vn -0.9028 -0.0747 0.4235
vn -0.9202 -0.1206 -0.3725
vn -0.3813 0.0837 -0.9206
vn 0.8377 0.1455 0.5264
vn -0.3813 0.0837 0.9206
vn 0.8377 0.1455 -0.5264
vn -0.9233 0.0340 0.3825
vn -0.9233 0.0340 -0.3825
vn 0.1360 0.9907 0.0000
vn 0.0000 1.0000 -0.0000
vn 0.0000 -1.0000 -0.0000
vn 0.6066 0.7542 0.2513
vn -0.6066 0.7542 0.2513
vn 0.6066 0.7542 -0.2513
vn 0.2513 0.7542 -0.6066
vn -0.2513 0.7542 0.6066
vn -0.2513 0.7542 -0.6066
vn 0.2513 0.7542 0.6066
usemtl Material_002.002
s 1
f 1//1 2//1 3//1
f 2//2 1//2 4//2
f 1//3 3//3 5//3
f 1//4 5//4 6//4
f 1//5 6//5 4//5
f 2//6 4//6 7//6
f 3//7 2//7 8//7
f 5//8 3//8 9//8
f 6//9 5//9 10//9
f 4//10 6//10 11//10
f 2//11 7//11 8//11
f 3//12 8//12 9//12
f 5//13 9//13 10//13
f 6//14 10//14 11//14
f 4//15 11//15 7//15
f 8//16 7//16 12//16
f 9//17 8//17 12//17
f 10//18 9//18 12//18
f 11//19 10//19 12//19
f 7//20 11//20 12//20
f 13//21 14//21 15//21
f 14//22 13//22 16//22
f 13//23 15//23 17//23
f 13//24 17//24 18//24
f 13//25 18//25 16//25
f 14//26 16//26 19//26
f 15//27 14//27 20//27
f 17//28 15//28 21//28
f 18//29 17//29 22//29
f 16//30 18//30 23//30
f 14//31 19//31 20//31
f 15//32 20//32 21//32
f 17//33 21//33 22//33
f 18//34 22//34 23//34
f 16//35 23//35 19//35
f 20//36 19//36 24//36
f 21//37 20//37 24//37
f 22//38 21//38 24//38
f 23//39 22//39 24//39
f 19//40 23//40 24//40
f 25//21 26//21 27//21
f 26//22 25//22 28//22
f 25//23 27//23 29//23
f 25//24 29//24 30//24
f 25//25 30//25 28//25
f 26//26 28//26 31//26
f 27//27 26//27 32//27
f 29//28 27//28 33//28
f 30//41 29//41 34//41
f 28//30 30//30 35//30
f 26//31 31//31 32//31
f 27//32 32//32 33//32
f 29//33 33//33 34//33
f 30//34 34//34 35//34
f 28//35 35//35 31//35
f 32//36 31//36 36//36
f 33//37 32//37 36//37
f 34//38 33//38 36//38
f 35//39 34//39 36//39
f 31//40 35//40 36//40
f 37//42 38//42 39//42
f 38//43 37//43 40//43
f 37//44 39//44 41//44
f 37//45 41//45 42//45
f 37//46 42//46 40//46
f 38//47 40//47 43//47
f 39//48 38//48 44//48
f 41//49 39//49 45//49
f 42//50 41//50 46//50
f 40//51 42//51 47//51
f 38//52 43//52 44//52
f 39//53 44//53 45//53
f 41//54 45//54 46//54
f 42//55 46//55 47//55
f 40//56 47//56 43//56
f 44//57 43//57 48//57
f 45//58 44//58 48//58
f 46//59 45//59 48//59
f 47//60 46//60 48//60
f 43//61 47//61 48//61
f 49//42 50//42 51//42
f 50//43 49//43 52//43
f 49//44 51//44 53//44
f 49//45 53//45 54//45
f 49//46 54//46 52//46
f 50//47 52//47 55//47
f 51//48 50//48 56//48
f 53//49 51//49 57//49
f 54//50 53//50 58//50
f 52//51 54//51 59//51
f 50//52 55//52 56//52
f 51//53 56//53 57//53
f 53//54 57//54 58//54
f 54//55 58//55 59//55
f 52//56 59//56 55//56
f 56//57 55//57 60//57
f 57//58 56//58 60//58
f 58//59 57//59 60//59
f 59//60 58//60 60//60
f 55//61 59//61 60//61
f 61//62 62//62 63//62
f 62//63 61//63 64//63
f 61//64 63//64 65//64
f 61//65 65//65 66//65
f 61//66 66//66 64//66
f 62//67 64//67 67//67
f 63//68 62//68 68//68
f 65//69 63//69 69//69
f 66//70 65//70 70//70
f 64//71 66//71 71//71
f 62//72 67//72 68//72
f 63//73 68//73 69//73
f 65//74 69//74 70//74
f 66//75 70//75 71//75
f 64//76 71//76 67//76
f 68//77 67//77 72//77
f 69//78 68//78 72//78
f 70//79 69//79 72//79
f 71//80 70//80 72//80
f 67//81 71//81 72//81
f 73//42 74//42 75//42
f 74//43 73//43 76//43
f 73//44 75//44 77//44
f 73//45 77//45 78//45
f 73//46 78//46 76//46
f 74//47 76//47 79//47
f 75//48 74//48 80//48
f 77//49 75//49 81//49
f 78//50 77//50 82//50
f 76//51 78//51 83//51
f 74//52 79//52 80//52
f 75//53 80//53 81//53
f 77//54 81//54 82//54
f 78//55 82//55 83//55
f 76//56 83//56 79//56
f 80//57 79//57 84//57
f 81//58 80//58 84//58
f 82//59 81//59 84//59
f 83//60 82//60 84//60
f 79//61 83//61 84//61
f 85//82 86//82 87//82
f 86//83 85//83 88//83
f 85//84 87//84 89//84
f 85//85 89//85 90//85
f 85//86 90//86 88//86
f 86//87 88//87 91//87
f 87//88 86//88 92//88
f 89//89 87//89 93//89
f 90//90 89//90 94//90
f 88//91 90//91 95//91
f 86//92 91//92 92//92
f 87//93 92//93 93//93
f 89//94 93//94 94//94
f 90//95 94//95 95//95
f 88//96 95//96 91//96
f 92//97 91//97 96//97
f 93//98 92//98 96//98
f 94//99 93//99 96//99
f 95//100 94//100 96//100
f 91//101 95//101 96//101
usemtl Material_001.002
f 97//102 98//102 99//102 100//102
f 100//103 99//103 101//103 102//103
f 102//104 101//104 103//104 104//104
f 104//105 103//105 105//105 106//105
f 106//106 105//106 107//106 108//106
f 108//107 107//107 109//107 110//107
f 109//108 107//108 111//108 112//108
f 113//109 114//109 98//109 97//109
f 110//110 109//110 114//110 113//110
f 110//111 113//111 115//111 116//111
f 112//112 117//112 118//112 119//112
f 101//113 99//113 120//113 121//113
f 99//114 98//114 122//114 120//114
f 107//115 105//115 123//115 111//115
f 98//116 114//116 119//116 122//116
f 105//117 103//117 124//117 123//117
f 114//118 109//118 112//118 119//118
f 103//119 101//119 121//119 124//119
f 119//120 118//120 125//120 122//120
f 123//121 126//121 127//121 111//121
f 121//122 128//122 129//122 124//122
f 122//123 125//123 130//123 120//123
f 128//124 130//124 131//124 132//124
f 111//125 127//125 117//125 112//125
f 124//126 129//126 126//126 123//126
f 120//127 130//127 128//127 121//127
f 129//128 128//128 132//128 133//128
f 126//129 129//129 133//129 134//129
f 135//130 126//130 134//130 136//130
f 130//131 125//131 137//131 131//131
f 125//132 135//132 136//132 137//132
f 136//133 134//133 138//133 139//133
f 131//134 137//134 140//134 141//134
f 132//135 131//135 141//135 142//135
f 133//136 132//136 142//136 143//136
f 137//137 136//137 139//137 140//137
f 134//138 133//138 143//138 138//138
f 138//139 143//139 144//139 145//139
f 139//140 138//140 145//140 146//140
f 141//141 140//141 147//141 148//141
f 140//142 139//142 146//142 147//142
f 142//143 141//143 148//143 149//143
f 143//144 142//144 149//144 144//144
f 117//145 127//145 150//145 151//145
f 118//146 117//146 151//146 152//146
f 135//147 125//147 153//147 154//147
f 125//148 118//148 152//148 153//148
f 126//149 135//149 154//149 155//149
f 127//150 126//150 155//150 150//150
f 153//151 152//151 156//151 157//151
f 155//152 154//152 158//152 159//152
f 150//153 155//153 159//153 160//153
f 154//154 153//154 157//154 158//154
f 151//155 150//155 160//155 161//155
f 152//156 151//156 161//156 156//156
f 157//157 156//157 162//157 163//157
f 159//158 158//158 164//158 165//158
f 160//159 159//159 165//159 166//159
f 158//160 157//160 163//160 164//160
f 161//161 160//161 166//161 167//161
f 156//162 161//162 167//162 162//162
f 148//163 147//163 146//163 145//163 144//163 149//163
f 166//164 165//164 164//164 163//164 162//164 167//164
f 168//165 169//165 170//165 171//165 172//165 173//165 116//165 115//165
f 102//166 104//166 171//166 170//166
f 108//167 110//167 116//167 173//167
f 100//168 102//168 170//168 169//168
f 97//169 100//169 169//169 168//169
f 106//170 108//170 173//170 172//170
f 113//171 97//171 168//171 115//171
f 104//172 106//172 172//172 171//172
